<!DOCTYPE svg PUBLIC "-//W3C//DTD SVG 1.1//EN" "http://www.w3.org/Graphics/SVG/1.1/DTD/svg11.dtd">
<!-- Uploaded to: SVG Repo, www.svgrepo.com, Transformed by: SVG Repo Mixer Tools -->
<svg width="189px" height="189px" viewBox="-1.6 -1.6 19.20 19.20" xmlns="http://www.w3.org/2000/svg" fill="none" transform="rotate(45)" stroke="#6C757D">
<g id="SVGRepo_bgCarrier" stroke-width="0">
<path transform="translate(-1.6, -1.6), scale(0.6)" d="M16,29.098568907805852C18.354890296991005,29.28418005994356,20.7967695334093,30.200840609284064,22.980696865350712,29.300606628888122C25.19243535736919,28.388908644644875,26.454311009281298,26.12114655393572,27.881230792954756,24.201021479230775C29.34794041086889,22.227353479886307,31.323864417099877,20.332978128108582,31.469069227562265,17.878285064213056C31.613811381658035,15.431413224493875,29.999565846219827,13.24869768119874,28.650148847184358,11.202431360824697C27.47780965134534,9.424687183736024,25.710875218201746,8.248692175032485,24.15792369281947,6.791607720003874C22.559735493422068,5.292079149091862,21.39564467234165,3.213547823084206,19.336410536554077,2.46365034363669C17.227242273988644,1.6955686882577616,14.897768117330976,2.153450656856715,12.702079293970893,2.619809724651633C10.459292288547573,3.096172333953964,8.14999346238734,3.6815684042679595,6.435396868802245,5.203794868531219C4.72136949971161,6.725515972762378,3.6495391117469387,8.886526074124799,3.129125042445093,11.118720988895227C2.637152354659322,13.228923223347852,3.6081670447855263,15.343323063606363,3.566394291065917,17.50971306378239C3.5168806607478436,20.077555114930934,1.6058040313452588,22.82860944069255,2.8601175049763157,25.069806020446684C4.086890143491514,27.261792871721582,7.17233076553852,27.507553159606434,9.573910221115415,28.243891112806295C11.670334949149826,28.886666886763614,13.814028577703246,28.92627184804428,16,29.098568907805852" fill="#2C3E50" strokewidth="0"/>
</g>
<g id="SVGRepo_tracerCarrier" stroke-linecap="round" stroke-linejoin="round"/>
<g id="SVGRepo_iconCarrier">
<path fill="#f0e6d6" fill-rule="evenodd" d="M13.75.5a2.25 2.25 0 00-1.847 3.536l-.933.934a.752.752 0 00-.11.14c-.19-.071-.396-.11-.61-.11h-2.5A1.75 1.75 0 006 6.75v.5H4.372a2.25 2.25 0 100 1.5H6v.5c0 .966.784 1.75 1.75 1.75h2.5c.214 0 .42-.039.61-.11.03.05.067.097.11.14l.933.934a2.25 2.25 0 101.24-.881L12.03 9.97a.75.75 0 00-.14-.11c.071-.19.11-.396.11-.61v-2.5c0-.214-.039-.42-.11-.61a.75.75 0 00.14-.11l1.113-1.113A2.252 2.252 0 0016 2.75 2.25 2.25 0 0013.75.5zM13 2.75a.75.75 0 111.5 0 .75.75 0 01-1.5 0zM7.75 6.5a.25.25 0 00-.25.25v2.5c0 .138.112.25.25.25h2.5a.25.25 0 00.25-.25v-2.5a.25.25 0 00-.25-.25h-2.5zm6 6a.75.75 0 100 1.5.75.75 0 000-1.5zM1.5 8A.75.75 0 113 8a.75.75 0 01-1.5 0z" clip-rule="evenodd"/>
</g>
</svg>